<?xml version="1.0" encoding="UTF-8"?>
<svg version="1.1" viewBox="0 0 2000 2000" width="500" height="500" xmlns="http://www.w3.org/2000/svg">
<path transform="translate(1506,61)" d="m0 0h35l18 2 17 4 1 2 1 11v14l-2 22-6 34-8 32-9 29-10 27-12 29-13 28-10 20-26 46-8 13-13 20-13 19-10 13-13 17-11 13-9 11-12 13-15 16-9 9h-2v2l-8 7-9 9-8 7-15 13-13 11-38 28-18 13-12 8-2 2-1 7-4 56-3 26 13-6 26-11 22-7 20-4 1 2-8 20-8 16-11 18-12 17-9 12-12 15-9 11-12 13-9 10-14 16h-2l-2 4-30 30-8 7-11 9-34 23-5 4 2 61v29l-1 19-5 19-5 13-8 13-9 11-9 10-15 15-11 9-13 11-16 12-13 10-22 14-13 8-3 4-5 19-5 26-2 28 2 27 7 43 6 37 2 18v45l-4 20-4 11-7 9-5 3h-13l-11-4-24-15-11-6-1 5-10 27-20 50-19 43-12 28-14 30-11 20-12 17-14 15-16 16-11 9-15 12-14 10-27 18-20 12-16 9-45 23-21 8h-6l-6-3-9 1-16 8-5 5 1 11-3 5-10 7-4 9-4 10-7 9-2 2h-6l-8-5-4-5-3-6-1-10 3-15 5-15 9-19 6-9h29l6-4h2l-1-9 7-8 14-12 11-9 14-12 10-9 11-9 16-15 6-6h2v-2l7-6 3-4h2l2-4 9-9 9-11 10-12 12-16 9-14 8-16 6-18 2-9 1-11v-27l-1-5-4 1-19 13-27 18-14 8-15 7-19 6-27 5-25 3-16 1h-77l-26-2-42-6-8-3-3-6-12-2-22-1-3 3-5 7-13 3-11 8-11 9-6 3-7-2-4-5-3-8v-8l5-12 5-8 6-7 8-7 12-10 10-7 5-1 10 5 9 8 4 4 12 1 5-3 4-5 12-3 37-5 43-7 34-7 26-7 27-9 16-7 23-12 13-10 9-9 10-13 20-32-1-2-15-4-34-4-17-5-12-5-8-6-5-4-8-11-8-16-6-15-7-24-2-8v-5l5 2 13 10 20 12 15 6 18 4h9l18-3 12-5 13-8 10-9 15-15 10-13 11-17 12-20 15-29 19-39 13-25 12-21 14-21 8-10 9-11h2l1-3 8-7 13-9 16-9 16-5 16-2 1-13-2-4-12-6-10-8-9-6-10-9-7-7-10-14-5-10-3-12-1-15 2-14 5-12 6-10 9-10 10-5 18-6 33-10 8-3 6-1h18l8 1h15l14-3 25-7 18-2h13l9 1 1-58 1-44-10 5-19 14-14 10-12 9-19 14-4 3h-3v-2l-4-2-9-10-9-11-11-12-11-14-10-11-5 1-10 9-3 3h-2l-2 4-3 9-6 11-11 17-4-1-1-3h-2l-8-10-11-12-9-11-13-15-14-17-9-10-9-11-9-10-9-11-10-11-7-8-10-12v-2l25-11 13-4 8-7 9-7 3-3-1-5-12-16-8-9-18-22-1-5 4-6 30-30h2l2-4 15-15 4-7-5-2-46-6-24-3h-8l-14 7-11 7-16 10-15 10-20 12-6 3-8 1-11-3-9-8-7-14-1-7 3-10 14-19 15-16 12-14 9-10 11-14 24-28 20-20 11-9 15-12 14-10 18-13 15-10 24-15 22-13 27-14 25-11 21-7 12-3h7l-1 8-7 17-12 21-10 16-7 11v3l37 2 34 3 8-7 15-16 19-19 7-8 4-4h2v-2l8-7 7-7 8-7 11-10 11-9 14-12 16-12 15-11 24-16 20-12 25-14 29-15 23-11 43-18 39-14 43-12 40-9 39-7zm-446 869-17 9-9 5-32 4-14 1-3 9-6 29-4 10-5 5-15 6-4 4-4 11v5l8 7 10 8 5 1 10-3 22-10 23-10 14-8 10-9 5-10 4-18 3-24 2-21z" fill="#EE514F"/>
<path transform="translate(1242,607)" d="m0 0h1l-2 35-4 46-1 6 13-6 26-11 22-7 20-4 1 2-8 20-8 16-11 18-12 17-9 12-12 15-9 11-12 13-9 10-14 16h-2l-2 4-30 30-8 7-11 9-34 23-5 4 2 61v29l-1 19-5 19-5 13-8 13-9 11-9 10-15 15-11 9-13 11-16 12-13 10-22 14-13 8-3 4-5 19-5 26-2 28 2 27 7 43 6 37 2 18v45l-4 20-4 11-7 9-5 3h-13l-11-4-24-15-11-6-1 5-10 27-20 50-19 43-12 28-14 30-11 20-12 17-14 15-16 16-11 9-15 12-14 10-27 18-20 12-16 9-45 23-21 8h-6l-6-3-9 1-16 8-5 5 1 11-3 5-10 7-4 9-4 10-7 9-2 2h-6l-8-5-4-5-3-6-1-10 3-15 5-15 9-19 6-9h29l6-4h2l-1-9 7-8 14-12 11-9 14-12 10-9 11-9 16-15 6-6h2v-2l7-6 3-4h2l2-4 9-9 9-11 10-12 12-16 9-14 8-16 6-18 2-9 1-11v-27l-1-5-4 1-19 13-27 18-14 8-15 7-19 6-27 5-25 3-16 1h-77l-26-2-42-6-8-3-3-6-12-2-22-1-3 3-5 7-13 3-11 8-11 9-6 3-7-2-4-5-3-8v-8l5-12 5-8 6-7 8-7 12-10 10-7 5-1 10 5 9 8 4 4 12 1 5-3 4-5 12-3 37-5 43-7 34-7 26-7 27-9 16-7 23-12 13-10 9-9 10-13 20-32-1-2-15-4-34-4-17-5-12-5-8-6-5-4-8-11-8-16-6-15-7-24-2-8v-5l5 2 13 10 20 12 15 6 18 4h9l18-3 12-5 13-8 10-9 15-15 10-13 11-17 12-20 15-29 19-39 13-25 12-21 14-21 8-10 9-11h2l1-3 8-7 13-9 16-9 16-5 16-2 1-13-2-4-12-6-10-8-9-6-10-9-7-7-10-14-5-10-3-12-1-15 2-14 5-12 6-10 9-10 10-5 18-6 33-10 8-3 6-1h18l8 1h15l14-3 25-7 18-2h13l9 1 1-58 1-45 11-8 15-11 13-9 18-13 11-8 30-21 78-52zm-182 323-17 9-9 5-32 4-14 1-3 9-6 29-4 10-5 5-15 6-4 4-4 11v5l8 7 10 8 5 1 10-3 22-10 23-10 14-8 10-9 5-10 4-18 3-24 2-21z" fill="#4EC3A3"/>
<path transform="translate(1324,1775)" d="m0 0h74l40 3 30 4 22 5 19 7 10 6 10 9 7 8 5 11 2 7v21l-4 14-8 16-9 11-7 7-13 9-15 8-21 8-25 6-21 3-28 2h-46l-37-2-49-5-64-9-62-9-37-4-39-3-62-2h-87l-91 3-112 7-72 5-46 2h-83l-32-2-26-3-6-3-4-5v-7l4-7 6-3 16-3 67-7 28-2h64l45 4h56l44-5 46-8 86-19 131-31 52-12 63-13 45-8 58-8 40-4z" fill="#9E9FDA"/>
<path transform="translate(692,1374)" d="m0 0 6 2 19 9 13 8 10 6 14 7 14 4 5 1h11l18-5 26-10 12-3h19l15 3 17 6 15 9 1 4-28 72-14 32-15 34-9 21-14 29-11 18-9 12-12 13-17 17-11 9-15 12-14 10-27 18-20 12-16 9-45 23-21 8h-6l-6-3-9 1-16 8-5 5 1 11-3 5-10 7-4 9-4 10-7 9-2 2h-6l-8-5-4-5-3-6-1-10 3-15 5-15 9-19 6-9h29l6-4h2l-1-9 7-8 14-12 11-9 14-12 10-9 11-9 16-15 6-6h2v-2l7-6 3-4h2l2-4 9-9 9-11 10-12 12-16 9-14 8-16 6-18 2-9 1-11v-27l-1-5-4 1-19 13-27 18-14 8-15 7-19 6-27 5-25 3-16 1h-77l-26-2-42-6-8-3-3-6-12-2-22-1-3 3-5 7-13 3-11 8-11 9-6 3-7-2-4-5-3-8v-8l5-12 5-8 6-7 8-7 12-10 10-7 5-1 10 5 9 8 4 4 12 1 5-3 4-5 12-3 37-5 43-7 34-7 26-7 27-9 16-7 23-12 13-10 9-9 10-13 15-24z" fill="#344157"/>
<path transform="translate(713,698)" d="m0 0h21l14 3 12 5 12 7 11 9 11 11 10 14 8 16 4 11 4 17 1 17-2 15-4 12-5 10-8 11-14 15-8 7-14 11-15 10-18 10-27 13-33 13-32 12-4-1 3-29 1-5-10 3-31 13-30 11-14 4-3-1 12-22 14-25 14-24 2-7-31 8-27 9h-2l2-5 10-15 13-19 10-14 13-18 9-12 26-36 12-14 11-13 10-9 15-11 16-9 15-5z" fill="#F9B044"/>
<path transform="translate(946,244)" d="m0 0h7l-1 8-7 17-12 21-10 16-7 11v3l37 2 32 3 1 2-7 8-10 11-7 8-8 8-7 8-10 10-7 8-15 16-14 14-1 2h-2l-2 4h-2l-2 4-57 57-5-2-46-6-24-3h-8l-14 7-11 7-16 10-15 10-20 12-6 3-8 1-11-3-9-8-7-14-1-7 3-10 14-19 15-16 12-14 9-10 11-14 24-28 20-20 11-9 15-12 14-10 18-13 15-10 24-15 22-13 27-14 25-11 21-7z" fill="#F9B043"/>
<path transform="translate(1249,224)" d="m0 0h18l15 2 14 4 16 7 12 8 9 7 7 7 10 13 8 14 5 12 4 15 1 6v28l-5 20-7 17-8 13-11 13-7 7-8 6-17 10-14 5-12 3-8 1h-24l-14-2-15-5-16-8-11-8-10-9-9-10-9-14-5-10-6-18-2-11v-27l4-18 5-14 8-15 11-14 9-9 10-8 10-6 15-6 15-4z" fill="#B7D6E5"/>
<path transform="translate(833,489)" d="m0 0h2v9l2 6 5 2 7 8 4 4v2l4 2 4 4v2l4 2 11 13v2l3 1 7 9 6 7 8 10 5 5 5 6v2l3 1v2h2l2 5h2v2h2l8 11 8 9v2h2l9 11 9 10 9 11 9 12 5 5 5 4v3l4 2 6 8 7 9 5 5 11 13 5 6 8 10 4 8v9l1 2 4 2-14 10-18 13-13 10-11 8h-3v-2l-4-2-9-10-9-11-11-12-11-14-10-11-5 1-10 9-3 3h-2l-2 4-3 9-6 11-11 17-4-1-1-3h-2l-8-10-11-12-9-11-13-15-14-17-9-10-9-11-9-10-9-11-10-11-7-8-10-12v-2l25-11 13-4 8-7 9-7 3-3-1-5-12-16-8-9-18-22-1-5 4-6 30-30h2l2-4 15-15z" fill="#C95152"/>
<path transform="translate(1038,834)" d="m0 0h13l15 2 4 4 4 12 1 5v12l-5 5-6 8-10 16-5 13-4 9-8 14-8 6-6 4-5 3-16 2h-14l-26-10-16-4-9-1h-22l-13 4-6 4-3 3-2 10 1 14 3 13v10l-4-1-11-7-12-11-10-11-9-14-4-13-2-16 2-17 5-12 6-10 9-10 10-5 18-6 33-10 8-3 6-1h18l8 1h15l14-3 25-7z" fill="#344157"/>
<path transform="translate(1315,666)" d="m0 0 3 1-6 16-6 13-11 20-13 19-12 16-12 15-9 11-12 13-9 10-14 16h-2l-2 4-30 30-8 7-11 9-34 23-5 2-2-1-2-13-2-5h-9l-3-6v-11l4-7 2-1 4-14v-12l-7-11-8-12v-5l11-12 10-8 21-16 16-11 24-16 23-15 19-11 21-12 1-2 20-9 19-7 21-6z" fill="#F9B043"/>
<path transform="translate(1242,607)" d="m0 0h1l-2 35-4 46-1 6 9-3-3 3-23 13-20 12-51 34-17 13-12 9-13 11-6 7v5l9 14 6 9v12l-4 14-3 1-2 5-1 2v11l2 5 9 1 1 3-38 1-10 1-1 2-2 21h-2v22l-2 6-4 4-15 8-9 5-4 1h-10l5-5 10-6 6-10 4-6 4-10 5-13 7-11 8-11 5-6v-11l-4-15-2-4-8-3 1-58 1-45 11-8 15-11 13-9 18-13 11-8 30-21 78-52z" fill="#C7CED3"/>
<path transform="translate(1249,224)" d="m0 0h18l15 2 14 4 16 7 12 8 9 7 7 7 10 13 8 14 5 12 4 15 1 6v28l-5 20-7 17-8 13-11 13-7 7-8 6-17 10-14 5-12 3-8 1h-24l-14-2-15-5-16-8-11-8-10-9-9-10-9-14-5-10-6-18-2-11v-27l4-18 5-14 2-2-1 5-5 15-3 16v16l2 6h6l2-1 65-3h12l13-1 16-2h30l7-1 17-1 18-2 11-4 4-2 5-15 2 4 2 6v-10l-7-22-8-15-11-14-8-8-2-1v-2l-4-2-17-10-16-7-20-4h-25l-20 4-13 5-16 9-6 5-2-1 8-7 10-6 15-6 15-4z" fill="#A5CCE0"/>
<path transform="translate(914,320)" d="m0 0 39 2 32 3 1 2-7 8-10 11-7 8-8 8-7 8-10 10-7 8-15 16-14 14-1 2h-2l-2 4h-2l-2 4-57 57-5-2-46-6-32-4 1-2 16-8 16-10 16-12 10-8 14-13 6-5 5-6 6-5 7-8 15-15 6-8h2l2-4 9-10 9-11 2-3h2l2-4 14-18z" fill="#C8CED3"/>
<path transform="translate(819,601)" d="m0 0 4 5 9 9 9 11 13 15 11 12 9 11 9 10 9 11 13 15 12 14 7 8v2l2 1-5 3-11 9-1 2h-2l-2 4-3 9-6 11-11 17-4-1-1-3h-2l-8-10-11-12-9-11-13-15-14-17-9-10-9-11-9-10-9-11-10-11-7-8-10-12v-2l25-11 13-4 8-7 9-7 3-3z" fill="#C8CED3"/>
<path transform="translate(714,745)" d="m0 0h12l3 3 7-1 10 1 8 3 5 5 4 6 4 7 6 12v5 4l4 3 1 8-4 10h-2l-2 6-7 7h-2l-1 3-10 7-15 9-4 3-8 4-10 6-6 3-2 2-9 3-1 1-9-1-2-2-1-4-4-2-1-1h-11v2l-15 4-6-1-1-2h2l-1-5 3-9 4-8-1-7-1-1-9-1-6 3-3-1 1-5 1-2h2v-2h2l1-4 9-12 7-9 5-8h2l1-4 5-9h2v-2h2v-2h2l2-5 9-9 9-7 6-3z" fill="#FAC17A"/>
<path transform="translate(1249,209)" d="m0 0h20l14 2 15 4 9 4 14 7 12 8 10 8 10 10v2h2l9 13 9 17 5 13 4 16 1 6v24l-3 18-5 15-9 20-10 15-12 13-9 8-16 10-14 7-16 5-16 3h-23l-16-2-20-6-9-4-14-7-13-10-10-9-9-11-10-16-5-10-5-15-4-18-1-19 2-19 7-23 5-12 10-16 12-14 10-9 11-8 10-6 10-5 19-6zm0 15-21 4-16 6-12 6-9 7-12 11-10 12-9 16-5 12-4 16-1 6v27l4 18 7 18 9 14 8 10 10 10 14 10 16 8 15 5 14 2h24l17-3 12-4 14-7 11-7 13-12 11-13 8-14 7-18 4-17v-28l-4-18-5-13-7-13-8-11-12-13-15-11-16-8-11-4-14-3-9-1z" fill="#344157"/>
<path transform="translate(915,933)" d="m0 0h22l12 2 13 3 26 10-5 25-4 17-3 7-5 5-9 4-8 4-3 5-4 12-28-6-7-2v-12l-2-4-12-6-5-5h2l-2-14-3-17 1-13 3-5 6-5 10-4z" fill="#E8C3A1"/>
<path transform="translate(785,627)" d="m0 0 4 1 5 6 8 10 6 8 3 3v2h2l3 6 3 2 3 5 4 4 5 3 4 4v2h2l7 8 9 10 6 6 4 5 6 5v2l4 2 5 5 3 4v2h2l1 3 5 5v2h2v2h3l4 4v3h2l1-3 1 4-6 11-11 17-4-1-1-3h-2l-8-10-11-12-9-11-13-15-14-17-9-10-9-11-9-10-9-11-10-11-7-8-10-12v-2l16-7z" fill="#4EC3A3"/>
<path transform="translate(1243,691)" d="m0 0 2 1-17 10-14 8-18 11-48 32-17 13-12 9-13 11-6 7v5l9 14 6 9v12l-4 14-3 1-2 5-1 2v11l2 5 9 1 1 3-38 1-10 1-1 2-2 21h-2v22l-2 6-4 4-15 8-9 5-4 1h-10l5-5 10-6 6-10 4-6 4-10 5-13 7-11 8-11 5-6v-11l-4-15-1-6-2-1 1-5 6-9 5-4 5-5 6-10 3-9 13-13 17-13 21-16 18-12 37-24 34-20z" fill="#EAC3A0"/>
<path transform="translate(1242,607)" d="m0 0h1l-1 12-1 3-7 5-1 2-9 2v2l-5 2v2l-4 1v2l-5 2v2h-2v2l-16 12-3 1v2l-4 1v2l-5 2v2l-9 7h-2v2l-9 6-3 1v2l-7 6h-2v2l-4 3h-2v2l-5 4h-2v2l-17 13-3 1-2 4-11 10-8 6h-2v2l-10 8-5 5-7 6-7-1-1-27 11-8 15-11 13-9 18-13 11-8 30-21 78-52z" fill="#B9BABF"/>
<path transform="translate(374,1487)" d="m0 0 6 1 11 7 7 8 2 1 12 1 6-3 2 5 2 16v8l-33-2-3 3-5 7-13 3-11 8-11 9-6 3-7-2-4-5-3-8v-8l5-12 5-8 6-7 8-7 12-10 10-7z" fill="#354158"/>
<path transform="translate(576,1738)" d="m0 0 4 2 8 9 7 10-3 2-13 5-10 6-2 5 1 9-3 5-10 7-4 9-4 10-7 9-2 2h-6l-8-5-4-5-3-6-1-10 3-15 5-15 9-19 6-9h29l6-4h2z" fill="#354258"/>
<path transform="translate(819,601)" d="m0 0 4 5 9 9 9 11 13 15 11 12 9 11 9 10 9 11 13 15 12 14 7 8v2l2 1-5 3-11 9-1 2h-2l-1 3-6 1-7-8-8-11-12-14-7-8-10-11-7-9-12-14-1-3h-2l-7-8-12-13-7-8-2-4 1-4 7 4 7 6v2l5 2v2h2l5 6 10 8 5 5v2l4 2v2h3l5 5v2l4 2 7 7 8 7 7 6v2l4 2 7 5v2l4 2h3l-8-13-7-6-1-5h-3l-5-8-4-4-8-10-2-1-1-3-5-5-7-9v-2l-3-1-4-6-9-10-9-12-7-8-2-3z" fill="#B9BABF"/>
<path transform="translate(982,326)" d="m0 0 4 1-7 8-10 11-7 8-8 8-7 8-10 10-7 8-15 16-14 14-1 2h-2l-2 4h-2l-2 4-57 57-9-4v-5l4-5 8-7 10-9 4-4h2v-2l16-14 2-3h2l1-3 8-7 16-15 15-15 8-7 3-1 1-3 4-1 1-3 6-5 5-6 7-6 1-2h2l2-4 4-5 18-18z" fill="#B9BABF"/>
<path transform="translate(802,617)" d="m0 0h2l-1 7 3 1v2l3 1-2 1 1 5 7 9 9 9 7 8 3 3v2h2l9 11 11 13 9 11 8 8 9 11 8 10 8 11 4 2 3 1-5 8h-2l-1-3-3-2v-2h-3v-2h-2l-3-5-3-2v-3h-2l-3-5-10-10-9-8-5-5-12-14-4-4-1-3h-2l-4-4-5-4-5-5-3-5-3-2-2-6h-2l-6-7-8-11-4-5-5-6-9 1 4-3 15-5z" fill="#A6CCE1"/>
<path transform="translate(650,464)" d="m0 0 2 4 10 16 12 13 12 12 5 1-5 4-14 8-10 2-11-3-9-8-7-14-1-7 3-10z" fill="#A6CDE1"/>
<path transform="translate(1231,690)" d="m0 0h4l1 5-12 6-15 9-18 11-15 10-14 9-15 10-21 16-12 9-11 9-9 9-5 13-6 8-4 4h-2l-1 3-5 5-4 9 3 1-2 2-8-3v-12l1-3 3-2 4-8 9-6 8-7 10-13 3-4h2l1-3 7-5 4-4 9-5 7-6h2l1-3 5-1 2-4 4-1v-2l12-7 7-6 5-3 14-9 9-5h2v-2l9-5 16-10 14-8z" fill="#B8B9BF"/>
<path transform="translate(659,454)" d="m0 0h3l1 4 5 5 9 10 8 10 11 12 2 4 6 2v2l-11 7h-7l-21-21-10-14-4-7v-5z" fill="#EE514F"/>
<path transform="translate(817,598)" d="m0 0 4 2 5-1 5 1 5 2 2 5 3 1 2 5v5l4 2-2 7h2l1 4 5 1 7 8 3 2v2h2v2l7 2 1 5 5 2 2 3v4l8-1 4 6-1 6v2l3 3 2 4h2v-3h2l1 5-2 3 2 5 4 5 2 1v2l3 1 3 3h3l3 5v2h2l5 10v3h-2l-7-9-11-12-9-11-13-15-12-14-9-11-14-15-9-11-13-15-7-8z" fill="#EE514F"/>
<path transform="translate(1062,884)" d="m0 0 3 2v14l-1 22-2 6-4 4-15 8-9 5-4 1h-10l5-5 10-6 6-10 4-6 4-10 5-13 7-11z" fill="#EE514F"/>
<path transform="translate(769,632)" d="m0 0 2 1-4 3-1 4 4 2v2h3v2l4 2 1 3 8 7 5 10 5 5 7 8 3 7 4 2v3l5 2 3 3v2h2v2h2l7 11 7 8 7 5v2h2v2l3 1 6 12v2l4 2 3 3 4 2 5 7 5 5 5 7 2 1v2l7-1-4 7-4-1-1-3h-2l-8-10-11-12-9-11-13-15-14-17-9-10-9-11-9-10-9-11-10-11-7-8-10-12v-2z" fill="#A5CBE0"/>
<path transform="translate(417,1502)" d="m0 0 2 1 3 20v8l-33-2h-2l-1-6 4-6 8-10 2-3 12 1z" fill="#B8B9C0"/>
<path transform="translate(913,318)" d="m0 0 2 1-6 9-11 14-2 3h-2l-2 4-11 13-2 3h-2l-2 4-3 4h-2l-2 4-11 12-13 13-2 3h-2l-2 4h-2l-2 4h-2l-1 3-8 7-15 14-16 12-15 10-13 8-11 5-1 2-8 3v-2l24-14 20-14 13-10 10-9 8-7 11-9 7-8 21-21 9-11 3-4h2l2-4 8-8 10-13 12-14z" fill="#EBC4A0"/>
<path transform="translate(914,320)" d="m0 0 1 3-14 18-9 11-11 13-1 2h-2l-2 4-4 5-5 5-7 8h-2l-2 4-5 5-6 7h-2l-2 4-5 6h-2l-2 4h-2l-2 4-4 3h-2l-1 3-7 6-5 5-11 9h-3v2h-2v2l-11 7-13 8-13 5-4-1 19-10 18-12 12-9 10-8 14-13 6-5 5-6 6-5 7-8 15-15 6-8h2l2-4 9-10 9-11 2-3h2l2-4 14-18z" fill="#B9BABF"/>
<path transform="translate(576,1738)" d="m0 0 4 2 8 9 7 10-3 2-13 5-10 6-2 1-2-1 1-10 2-6-1-7-1-2-3-2 6-2 5-3h2z" fill="#B7B8C1"/>
<path transform="translate(1249,224)" d="m0 0h18l15 2 14 4 16 7 12 8 9 7 7 7 10 13 8 14 5 12 4 15 1 6v28l-5 20-5 12-1-3 5-13 3-14 1-7v-19l-4-18-5-15-8-15-11-14-8-8-2-1v-2l-4-2-17-10-16-7-20-4h-25l-20 4-13 5-16 9-6 5-2-1 8-7 10-6 15-6 15-4z" fill="#9E9FDA"/>
<path transform="translate(648,472)" d="m0 0 4 2 4 7 2 4 4 2 2 4h2v2h2l7 11 1 3h-5v-2l-4-1-2-3-3-1-5-5-2-3h-7v-2h-2v-6l-4 3-1-2-3-1 1-5 5-6z" fill="#51C3A5"/>
<path transform="translate(1295,214)" d="m0 0 7 1 9 4 14 7 8 5v2l5 2 12 11 3 3v2l3 1 10 15 9 17 6 18 3 16 1 18-2 18-5 18-8 19-8 14-5 5 2-5 8-13 8-18 5-17 2-14v-24l-4-18-4-12-8-17-9-14-2-4h-2l-7-8-10-9-17-11-16-8-8-3z" fill="#C95152"/>
<path transform="translate(1153,747)" d="m0 0 2 1-19 14-17 13-13 11-6 7v5l9 14 6 9v12l-4 14-3 1-2 5-1 2v11l2 5 9 1-4 2h-7l-3-6-1-4v-9l4-7 4-8 2-7v-10l-5-9-10-16v-5l12-12 16-13 19-14z" fill="#F9C17A"/>
<path transform="translate(1260,430)" d="m0 0h7l3 6 5 1 2-4 3-2 6 2v2l-5 3h-4v2h-34l-15-3-6-3 3-1h8 4 10l5-2 1 2 6 2z" fill="#B5D5E5"/>
<path transform="translate(1045,919)" d="m0 0 7 6 5 4 3 2-17 9-9 5-4 1h-10l5-5 10-6 6-10z" fill="#A0A2D8"/>
<path transform="translate(831,720)" d="m0 0 5 1 7 5v2h2v2l3 1 6 12v2l4 2 3 3 4 2 5 7 5 5 5 7 2 1v2l7-1-4 7-4-1-1-3h-2l-8-10-11-12-9-11-13-15z" fill="#A6CCE1"/>
<path transform="translate(1203,220)" d="m0 0 3 1-12 7-11 8-14 12-11 13-7 11-8 19-6 20-2 21 1 17 5 21-1 4-3-9-3-12-1-9v-25l4-18 4-12 5-12 8-14 7-10 10-10 11-10 14-9h2v-2z" fill="#C95152"/>
<path transform="translate(1158,373)" d="m0 0 3 4 6 12 12 16 9 9 12 9 12 7 16 6 15 3h34l16-4 13-5 7-4 2 1-10 6-14 5-12 3-8 1h-24l-14-2-15-5-16-8-11-8-10-9-9-10-9-14-5-10z" fill="#9E9FDA"/>
<path transform="translate(1243,691)" d="m0 0 2 1-17 10-14 8-18 11-36 24-5 2 4-6 40-26 34-20z" fill="#F0C393"/>
<path transform="translate(650,464)" d="m0 0 2 4 10 16 12 13 12 12 5 1-5 4-12 7-1-2 6-7-2-4-7-10-2-5h-2v-2h-2l-4-5-4-1v-2l-2-2v-2l-1-3-2-1-3-2-4-1z" fill="#9FA6D9"/>
<path transform="translate(913,318)" d="m0 0 2 1-6 9-11 14-2 3h-2l-2 4-11 13-2 3h-4l-2 4-7 7-8 10-16 16-1 2-2-1 7-8 12-12 9-11 3-4h2l2-4 8-8 10-13 12-14z" fill="#F5C184"/>
<path transform="translate(912 1e3)" d="m0 0 3 3 4 6v2l11 3h8l5-1 5-5 3-1-1 5-3 10-28-6-7-2z" fill="#BABCC2"/>
<path transform="translate(1062,884)" d="m0 0 3 2v14l-1 8-3 1-8-4 1-6 4-9z" fill="#F8AC4B"/>
<path transform="translate(1075,866)" d="m0 0 1 4-1 2h17l8 1h16l1 2-38 1-10 1-1 2-2 21h-1l-1-14-1-4 7-9 4-5z" fill="#B9BABF"/>
<path transform="translate(891,951)" d="m0 0h1l1 14 6 27 3 3 5 3 1 3-9-3-6-5 2-1-2-14-3-17z" fill="#B2B3C6"/>
<path transform="translate(1044,926)" d="m0 0h2l1 2 5 1 2 1v2l2 1-11 6h-5l-1-4 1-2h2z" fill="#A6CCE1"/>
<path transform="translate(1051,904)" d="m0 0 2 3v2l5 1 2 5-2 3h-5l-4-2-3 2 1-5z" fill="#C95152"/>
<path transform="translate(875,365)" d="m0 0h2l-2 4-3 4h-2l-2 4-11 12-13 13-2 3h-2l-2 4-2-1 3-4h2l2-4 17-17 8-10z" fill="#EBC4A0"/>
<path transform="translate(825,416)" d="m0 0 2 1-4 4h-2l-1 3-8 7-17 14-16 11-2-1 11-8 13-10 10-9 8-7z" fill="#FAC17A"/>
<path transform="translate(773,457)" d="m0 0 2 1-4 5-15 8-3 1-1 2-8 3v-2l24-14z" fill="#EEC18F"/>
<path transform="translate(1075,866)" d="m0 0 1 4-5 5-3 4-2 21h-1l-1-14-1-4 7-9 4-5z" fill="#B0B1C7"/>
<path transform="translate(1174,733)" d="m0 0 2 1-16 11-5 2 4-6 10-6z" fill="#F3C28A"/>
<path transform="translate(1188,722)" d="m0 0m-1 1 3 2-12 8-9 3 5-5z" fill="#F0C292"/>
<path transform="translate(802,617)" d="m0 0h2l-1 7 3 1v2l3 1-4 3-6-7 2-6z" fill="#B7D6E5"/>
<path transform="translate(1243,691)" d="m0 0 2 1-17 10-9 5-2-1 17-10h2v-2z" fill="#F6C17F"/>
<path transform="translate(884,354)" d="m0 0 1 3-6 8h-5l6-7z" fill="#F4C288"/>
<path transform="translate(1064,900)" d="m0 0h1v23l-2 8-3-2 2-2 1-5z" fill="#AAABCD"/>
<path transform="translate(837,404)" d="m0 0 2 1-5 8h-2l-1 3-4-1 5-6z" fill="#F4C287"/>
<path transform="translate(789,448)" d="m0 0v3l-12 8-5 2 3-5 7-3z" fill="#EBC39D"/>
<path transform="translate(981,973)" d="m0 0h1l-1 9-1 4h-2v-8l1-2h2z" fill="#BEC0C5"/>
<path transform="translate(1214,706)" d="m0 0 1 2-4 4-8 2 4-4z" fill="#F0C292"/>
<path transform="translate(913,318)" d="m0 0 2 1-6 9-2 1 1-5z" fill="#F0C28E"/>
</svg>
