<svg xmlns="http://www.w3.org/2000/svg" width="500" height="500" viewBox="0 0 500 500" version="1.1"><path d="M 235.105 172.583 C 226.430 174.915, 220.053 178.958, 211.507 187.544 C 202.194 196.899, 198.403 202.741, 195.702 211.899 C 193.238 220.252, 193.090 234.107, 195.373 242.679 C 200.362 261.416, 218.607 279.695, 237.144 284.528 C 249.093 287.644, 266.547 285.702, 277.642 280.024 C 284.253 276.640, 295 267.635, 295 265.479 C 295 262.994, 293.435 263.090, 287.440 265.946 C 271.038 273.757, 258.634 273.941, 244.162 266.589 C 228.552 258.658, 219.749 239.506, 222.994 220.533 C 224.112 214, 225.130 211.614, 229.764 204.672 C 232.763 200.177, 235.646 196.341, 236.169 196.147 C 236.692 195.952, 238.330 194.670, 239.810 193.296 C 245.287 188.211, 255.327 185, 265.747 185 C 273.042 185, 279.295 186.751, 288.883 191.479 C 296.458 195.214, 297.504 193.523, 291.554 187.161 C 286.470 181.726, 275.191 175.281, 266.068 172.598 C 259.236 170.588, 242.552 170.580, 235.105 172.583" stroke="none" fill="#ffffff" fill-rule="evenodd"/><path d="M 225 30.071 C 193.703 33.515, 159.675 44.887, 132.958 60.833 C 94.821 83.594, 65.456 115.396, 46.468 154.500 C 39.008 169.861, 34.931 181.140, 30.932 197.475 C 27.472 211.608, 27.348 214.418, 29.995 218.759 C 33.229 224.064, 37.534 226.172, 44.251 225.741 C 52.378 225.220, 55.168 222.352, 57.969 211.639 C 64.879 185.211, 73.396 165.571, 86.330 146.239 C 97.817 129.069, 106.364 119.247, 119.220 108.439 C 150.012 82.552, 179.164 68.558, 216.368 61.805 C 233.489 58.698, 263.440 58.688, 279.698 61.785 C 315.472 68.600, 338.795 79.113, 369 102.039 C 377.865 108.768, 396.375 127.657, 403.641 137.389 C 417.990 156.608, 429.573 181.034, 435.940 205.500 C 440.278 222.173, 443.611 226.231, 452.967 226.231 C 462.483 226.231, 468.538 218.788, 467.390 208.500 C 464.892 186.108, 449.796 150.883, 431.221 124.103 C 420.591 108.777, 400.115 87.156, 386 76.352 C 356.205 53.547, 321.909 38.448, 285 31.885 C 271.713 29.523, 238.978 28.533, 225 30.071 M 204.352 142.066 C 183.188 144.787, 165.753 161.846, 158.429 187 C 155.597 196.726, 155.800 216.607, 158.847 228 C 161.337 237.309, 170.578 257.578, 173.803 260.803 C 174.920 261.920, 175.633 263.034, 175.387 263.279 C 175.142 263.525, 176.245 265.121, 177.839 266.828 C 179.433 268.534, 180.560 270.106, 180.345 270.322 C 178.851 271.816, 214.019 304.500, 217.120 304.500 C 217.644 304.500, 218.394 304.962, 218.786 305.526 C 221.031 308.752, 242.061 322.475, 246.449 323.576 C 250.815 324.672, 273.524 310.175, 292.015 294.487 C 316.501 273.713, 331.694 250.400, 337.540 224.631 C 339.586 215.613, 339.570 195.987, 337.509 188.035 C 329.289 156.312, 302.860 136.880, 275.592 142.513 C 266.641 144.362, 260.259 147.172, 253.136 152.400 C 247.448 156.575, 246.920 156.674, 244.510 154.011 C 236.764 145.451, 219.037 140.179, 204.352 142.066 M 235.105 172.583 C 226.430 174.915, 220.053 178.958, 211.507 187.544 C 202.194 196.899, 198.403 202.741, 195.702 211.899 C 193.238 220.252, 193.090 234.107, 195.373 242.679 C 200.362 261.416, 218.607 279.695, 237.144 284.528 C 249.093 287.644, 266.547 285.702, 277.642 280.024 C 284.253 276.640, 295 267.635, 295 265.479 C 295 262.994, 293.435 263.090, 287.440 265.946 C 271.038 273.757, 258.634 273.941, 244.162 266.589 C 228.552 258.658, 219.749 239.506, 222.994 220.533 C 224.112 214, 225.130 211.614, 229.764 204.672 C 232.763 200.177, 235.646 196.341, 236.169 196.147 C 236.692 195.952, 238.330 194.670, 239.810 193.296 C 245.287 188.211, 255.327 185, 265.747 185 C 273.042 185, 279.295 186.751, 288.883 191.479 C 296.458 195.214, 297.504 193.523, 291.554 187.161 C 286.470 181.726, 275.191 175.281, 266.068 172.598 C 259.236 170.588, 242.552 170.580, 235.105 172.583" stroke="none" fill="#31ca33" fill-rule="evenodd"/><path d="M 30.555 241.954 C 24.121 246.196, 22.868 254.359, 25.481 275 C 31.396 321.710, 44.159 354.462, 69.907 389 C 98.166 426.907, 142.517 456.844, 188.418 468.997 C 222.933 478.135, 252.738 479.313, 289.472 472.993 C 346.132 463.244, 401.839 426.471, 433.766 377.743 C 455.698 344.269, 469.388 302.678, 470.731 265.440 C 471.190 252.726, 471.017 249.838, 469.621 246.896 C 467.359 242.128, 463.380 240, 456.731 240 C 446.603 240, 443 245.357, 443 260.418 C 443 270.324, 440.100 291.055, 437.602 299 C 434.836 307.798, 429.767 318.373, 424.241 326.876 C 417.852 336.706, 402.401 352.638, 393.722 358.344 C 380.171 367.255, 363.209 374.089, 349.627 376.109 C 342.078 377.232, 339 376.936, 339 375.088 C 339 373.525, 349.598 362.519, 355.130 358.336 C 361.921 353.203, 372.331 340.131, 376.523 331.472 C 382.681 318.754, 384.086 308.104, 380.379 302.250 C 377.459 297.639, 371.410 300.777, 363.875 310.814 C 357.586 319.190, 351.404 325.564, 343.208 332.126 C 336.394 337.580, 330.203 340.924, 305.780 352.341 C 282.239 363.346, 270.053 375.825, 260.196 399.023 C 255.811 409.344, 251.853 423.832, 249.957 436.500 C 249.299 440.900, 248.541 445.175, 248.273 446 C 247.508 448.354, 246.154 444.271, 246.070 439.360 C 246.032 437.083, 245.126 431.008, 244.058 425.860 C 239.082 401.883, 229.995 383.038, 217.275 370.319 C 208.432 361.475, 199.816 356.394, 176.073 346.018 C 171.989 344.233, 165.498 340.911, 161.650 338.636 C 153.340 333.723, 137.819 319.263, 130.971 310.055 C 124.139 300.867, 118.144 297.711, 114.915 301.602 C 113.018 303.888, 113.337 315.463, 115.478 322.053 C 116.452 325.049, 119.090 331.100, 121.340 335.500 C 124.903 342.467, 127.484 345.526, 141.318 359.181 C 151.455 369.187, 156.935 375.296, 156.462 376.062 C 155.394 377.789, 145.429 376.649, 134.500 373.549 C 126.295 371.222, 106.521 362.277, 103.676 359.605 C 103.029 358.997, 99.800 356.489, 96.500 354.031 C 79.519 341.383, 64.402 319.686, 58.566 299.586 C 55.790 290.027, 54.041 278.498, 52.959 262.633 C 52.401 254.456, 51.513 246.958, 50.985 245.972 C 47.990 240.376, 36.406 238.098, 30.555 241.954" stroke="none" fill="#406bd2" fill-rule="evenodd"/></svg>