<?xml version="1.0" encoding="UTF-8"?>
<svg version="1.1" viewBox="0 0 2000 2000" width="500" height="500" xmlns="http://www.w3.org/2000/svg">
<path transform="translate(347,111)" d="m0 0h853l1 1 2 163 282 1 1 1v99l-5 2-13 2v3l8 11 18 18 7 8 9 9 9 11 7 6 4 1 196 1 1 1v99l-1 1-92 1h-26l3 6 8 13 12 24 10 22 11 29 11 34 6 26 6 35 3 29 1 17v47l-2 25-3 24-7 34-10 37-6 18-7 15 1 4 5 4 2 1h7l6-7 6-8 4-3h10l5 3 6 9 4 5 2 1h7l5-5 7-10 4-3h10l8 5 6 11 3 2h7l7-6 3-3h2l-1 5-6 7-4 2h-8l-6-4-7-9-5-5h-7l-7 8-5 7-5 3h-8l-7-4-8-11-4-3h-6l-6 5-8 11-4 2h-8l-8-4-3-2-1 8-8 22-11 24-11 22-14 24-14 23-16 23-11 16-14 19-9 12-9 11-8 10-9 10-9 11-9 10-7 8-11 12-7 7-7 8h-2l-1 3-76 76-9 11-2 3-1 20-1 144-1 231-1 10-4 2-19 2-1 11-1 9v21l5 18 7 14 7 8 8 4 54 2 40 4 28 5 13 4 9 5 1 6-4 5-9 4-22 5-26 4-29 3-50 3-53 2-42 1h-469l-72-2-51-3-42-4-23-3-24-5-10-4-5-5 1-6 5-4 16-6 21-4 47-6 27-3 8-3-16-11-17-11-22-14-6-4-1-2v-10l11-75 4-26 1-6-9-3-3-3 5-19 17-50 14-36 11-25 7-16 14-30 20-40 12-22 11-21 13-23 16-28 26-44 6-11 4-7v-2l-5-5-13-18-7-11-14-19-11-13-11-12-9-9-8-7-18-14-14-9-16-9-16-8-26-11-37-13-43-14-21-8-26-11-17-9-19-12-17-11-12-5-9 2-7-1-8-7-7-9-2-1h-7l-5 5-7 10-5 3h-9l-8-7-7-9-5-2-6 1-8 11-7 6h-10l-6-4-8-12-4-2-7 1-5 4-2 3h-3l1-5 8-7 7-1 8 3 7 10 3 4 5 2 5-1 5-5 6-9 4-3h12l7 6 5 9 9 3 5-3h2l2-5 6-8 7-3h7l7 6 6 9 6 3-5-10-10-14-7-12-11-16-11-17-12-22-11-24-1-4-6 2-23 13-6 2-1-6 1-36 5 2 16 9-4-16-8-39-7-41-2-20-3-6-13-12-8-7-17-17-13-18-12-21-8-20-6-21-3-18-2-31v-277l4-4 36-14 30-11 14-5h2v-242zm640 1406-6 7-27 54-11 23-14 29-9 19-8 16-24 50-19 38-4 5-18-4-7-1v20l2 19 6 23 6 14 9 13 7 7 14 8 7 2 10-1 26-1 59-1h110l38 1h17v-20l-2-60-1-1-16-1v-15l5-161 1-36v-38l-4-1-35 3-33 1-25-1-23-3-27-6z" fill="#D4D4FC"/>
<path transform="translate(865,759)" d="m0 0 42 13 56 18 30 9 3 3-17 50-8 23v9l36 36 8 7 28 28 8 7 7 6 35 2 4 10 7 21 4 8 34 2 17 3 27 9 27 11 18 7 1 3-4 8-5 4-24 4-27 5-12 2 2 6 18 11 16 8 15 6 22 6 19 4h38l29-6 25-8h4l7 84 5 69 3 55 1 24v60l-1 144-1 231-1 10-4 2-19 2-1 11-1 9v21l5 18 7 14 7 8 8 4 54 2 40 4 28 5 13 4 9 5 1 6-4 5-9 4-22 5-26 4-29 3-50 3-53 2-42 1h-469l-72-2-51-3-42-4-23-3-24-5-10-4-5-5 1-6 5-4 16-6 21-4 47-6 27-3 8-3-16-11-17-11-22-14-6-4-1-2v-10l11-75 4-26 1-6-9-3-3-3 5-19 17-50 14-36 11-25 7-16 14-30 20-40 12-22 11-21 13-23 16-28 26-44 6-11 6-12 6-17 10-32 17-56 22-74 21-70 8-26 4-16v-3l-12-8-18-13-14-12-10-11-11-16-6-12-6-16-4-18-1-8v-27l5-24 9-29 17-50 5-15zm122 758-6 7-27 54-11 23-14 29-9 19-8 16-24 50-19 38-4 5-18-4-7-1v20l2 19 6 23 6 14 9 13 7 7 14 8 7 2 10-1 26-1 59-1h110l38 1h17v-20l-2-60-1-1-16-1v-15l5-161 1-36v-38l-4-1-35 3-33 1-25-1-23-3-27-6z" fill="#7648F8"/>
<path transform="translate(1024,275)" d="m0 0h179l282 1 1 1v99l-5 2-13 2v3l8 11 18 18 7 8 9 9 9 11 7 6 4 1 196 1 1 1v99l-1 1-92 1h-26l3 6 8 13 12 24 10 22 11 29 11 34 6 26 6 35 3 29 1 17v47l-2 25-3 24-7 34-10 37-6 18-7 15 1 4 5 4 2 1h7l6-7 6-8 4-3h10l5 3 6 9 4 5 2 1h7l5-5 7-10 4-3h10l8 5 6 11 3 2h7l7-6 3-3h2l-1 5-6 7-4 2h-8l-6-4-7-9-5-5h-7l-7 8-5 7-5 3h-8l-7-4-8-11-4-3h-6l-6 5-8 11-4 2h-8l-8-4-3-2-1 8-8 22-11 24-11 22-14 24-14 23-16 23-11 16-14 19-9 12-9 11-8 10-9 10-9 11-9 10-7 8-11 12-7 7-7 8h-2l-1 3-76 76-9 11-3 3-2-64-4-71-6-76-4-49v-12l-29 9-29 6h-38l-31-7-18-6-20-9-22-14-1-1v-5l21-5 38-6 7-3 4-6 1-5-33-13-26-10-17-5-13-2-34-2-3-5-5-12-9-29-4-22-5-49v-13l9-2 16-3-4-17-2-14v-29l4-22 7-23 3-1 2-5 6-11 10-15 8-10 15-15 13-10 19-11 19-8 15-4 11-2h7l-4-11-9-21-8-24v-3l-15-1-1-1-1-54v-37l1-147h-173l-7-1v-97z" fill="#D4D4FC"/>
<path transform="translate(347,111)" d="m0 0h853l1 1 1 77v86h-178l-1 103 180 1v184l1 54 15 2 10 30 11 25v4l-23 4-18 6-17 8-17 11-13 11-13 13-12 17-8 13-4 8-2 1-7 23-4 22v29l3 18 3 13-5 2-21 3 5 54 4 26 2 10h-21l-14-1-8-7-16-15-25-25-8-7-30-30-1-4 1-9 15-43 9-28-28-9-45-14-25-8-29-9-15-3-1-4 7-12 7-10 13-17 23-23 11-9 13-9h-227l-2-1v-287l-29-11-119-45-47-18-19-7-3-3h-3l-2 3-40 15-21 8-20 7-30 11-18 6v-240z" fill="#FCFCFC"/>
<path transform="translate(477,301)" d="m0 0 4 1 4 3 33 12 34 13 40 15 29 11 42 16 34 13 1 1v298l-4 26-5 19-6 16-9 19-12 19-10 13-19 19-17 13-20 13-22 12-23 13-17 10-46 25-6 5-1 2-5-1-1-53-15-8-23-13-13-7-18-10-23-13-14-8-12-9-9-7v-2l-4-2-12-13-6-8-10-16-7-14-6-16-5-21-2-17-1-37v-62l1-157 8-4 34-13 56-21 27-10 52-20h3v-44z" fill="#7648F8"/>
<path transform="translate(1220,619)" d="m0 0 3 1 14 37 8 18 1 1 19 1 10 2-1-2v-7l5-1h3l1-5h67l43 4 17 4 19 9 24 14 14 10 10 9 9 11 9 13 10 18 9 23 6 24 1 11v23l-5 18-9 19-5 10-12 13-10 8-21 12-2 30-4 19-6 20-10 24-11 19-12 16-7 8-11 9-11 10-15 10-17 8-6 2v2l-21 7-25 6-11 2h-38l-31-7-18-6-20-9-22-14-1-1v-5l21-5 38-6 7-3 4-6 1-5-33-13-26-10-17-5-13-2-34-2-3-5-5-12-9-29-4-22-5-49v-13l9-2 16-3-4-17-2-14v-29l4-22 7-23 3-1 2-5 6-11 10-15 8-10 15-15 13-10 19-11 19-8 15-4 11-2h7l-4-11-9-21-8-24z" fill="#FDCC91"/>
<path transform="translate(865,759)" d="m0 0 42 13 56 18 30 9 3 3-17 50-8 23v9l36 36 8 7 28 28 8 7 7 6 35 2 4 10 7 21 4 8 34 2 17 3 27 9 27 11 18 7 1 3-4 8-5 4-24 4-27 5-12 2 2 6 18 11 16 8 15 6 22 6 19 4 30 1-2 1-2 6-4 5-11 7-15 6-34 13-9 3h-20l-30-9-14-5-12-5-9-4-28-12-16-8-18-8-15-7-19-9-16-9-14-7-38-20-14-8-3 12-14 48-45 155-13 44-2 6v6l3 6v8l-3 6-8 7-16 4-2 5-9 14-17 28-10 17-12 21-15 26-13 25-10 18-10 21-10 19-5 12-15 32-7 17-11 27-10 25v5l16 6 43 14 141 47-1 5-14 28-5 6-18-4-7-2 1 2v18l2 19 6 23 6 14 9 13 9 8 14 7 8 3 7 7 3 7v4l-16 1h-72l-78-1-12-7-19-12-19-13-20-13-22-14-6-4-1-2v-10l11-75 4-26 1-6-9-3-3-3 5-19 17-50 14-36 11-25 7-16 14-30 20-40 12-22 11-21 13-23 16-28 26-44 6-11 6-12 6-17 10-32 17-56 22-74 21-70 8-26 4-16v-3l-12-8-18-13-14-12-10-11-11-16-6-12-6-16-4-18-1-8v-27l5-24 9-29 17-50 5-15z" fill="#BD5253"/>
<path transform="translate(465,467)" d="m0 0h28l23 4 21 7 16 8 9 5 7-9 4-8 6 2 11 7 20 12 7 5v6l-6 10-9 14 2 4 9 17 6 15 5 18 3 21v23l-3 19-6 20-7 16-9 15-10 13-13 14-14 11-11 7-21 10-20 6-16 3-16 1h-11l-22-3-18-5-16-7-12-6-14-10-14-12-11-12-9-13-8-14-5-11-6-18-4-22v-27l3-21 5-18 8-18 9-15 11-14 6-7 8-7 11-9 18-11 18-8 13-4 15-3z" fill="#FCFCFD"/>
<path transform="translate(347,111)" d="m0 0h853l1 1v77h-854l-1-1v-76z" fill="#968DFA"/>
<path transform="translate(1024,275)" d="m0 0h179l282 1 1 1v99l-5 2-6 1-46 1-14 24-3 6-4-2-13-23-3-5-362-1-7-1v-97z" fill="#7649F8"/>
<path transform="translate(1269,446)" d="m0 0h257l4 1 196 1 1 1v99l-1 1-92 1h-131l-141 1-5 5-10 17-5 9h-2l-12-21-6-9-1-1h-56l-1-1-1-99 1-4z" fill="#FBFAFC"/>
<path transform="translate(477,301)" d="m0 0 4 1v164h11v1l-27 1-19 3-15 4-17 7-16 9-11 8-10 9-5 5-10 11-10 15-8 15-6 16-4 18-2 15v27l4 22 7 21 10 19 9 13 12 14 11 10 14 10 10 6 16 7 15 5 20 4 16 1h5v142l-1 3h-4l-1-53-15-8-23-13-13-7-18-10-23-13-14-8-12-9-9-7v-2l-4-2-12-13-6-8-10-16-7-14-6-16-5-21-2-17-1-37v-62l1-157 8-4 34-13 56-21 27-10 52-20h3v-44z" fill="#7648F8"/>
<path transform="translate(986,1855)" d="m0 0h110l38 1 16 1 1 4 1 16 233 7-2-6-3-4v-2l-4-2-11-8v-1h29l36 2 34 4 25 5 11 4 7 4 1 6-4 5-9 4-22 5-26 4-29 3-50 3-53 2-42 1h-469l-72-2-51-3-42-4-23-3-24-5-10-4-5-5 1-6 5-4 16-6 21-4 47-6 27-3 7-2 5 1 15 9 16 10 2 1 84 1h82l-4-11-8-7 2-2 6-1 26-1z" fill="#9891FB"/>
<path transform="translate(481,303)" d="m0 0 18 7 40 15 34 13 40 15 50 19 34 13 1 1v298l-4 26-5 19-6 16-9 19-12 19-10 13-19 19-17 13-20 13-22 12-23 13-17 10-46 25-6 5-1 2-4-1h3v-3h2v-50l7-5 16-8 21-12 45-25 21-13 12-9 10-9 9-9 10-13 10-17 8-18 7-24 2-14 1-30v-235l-10-3-49-18-50-19-42-16-20-7-8-4-1-12z" fill="#9790FA"/>
<path transform="translate(475,304)" d="m0 0h1v42l-45 17-96 36-38 15-1 182v48l1 26 2 17 6 25 5 12 8 16 9 14 9 11 10 11 11 9 14 10 8 5 33 18 14 8 20 11 16 9 14 8v52l-8-5-19-11-23-13-35-19-18-10-23-13-6-2-7-8-11-9-22-22-13-18-12-21-8-20-6-21-3-18-2-31v-277l4-4 36-14 30-11 14-5h2l1-3 34-12 29-11 23-8 26-10z" fill="#9891FB"/>
<path transform="translate(657,1698)" d="m0 0 11 3 40 12 29 9 21 6 24 7 52 16 6 2 1 2v18l2 19 6 23 6 14 9 13 9 8 14 7 8 3 7 7 3 7v4l-16 1h-72l-78-1-12-7-19-12-19-13-20-13-22-14-6-4-1-2v-10l11-75 4-26z" fill="#050306"/>
<path transform="translate(1283,664)" d="m0 0h67l43 4 17 4 19 9 24 14 14 10 10 9 9 11 9 13 10 18 9 23 6 24 1 11v23l-5 18-9 19-9 12-9 10h-2v2l-13 9-13 7h-4l-3-21-7-33-8-29-4-11v-3l-21 3h-5l-5-22-6-21-4-10-3-11-4-8-3-5-13-13-9-4-18-5-30-7-16-5-4-4 5-3 16-3h4v-3l-9-2-28-10-9-4 2-1-1-2v-7l5-1h3z" fill="#BC5153"/>
<path transform="translate(1220,619)" d="m0 0 3 1 14 37 8 18 1 1 19 1 8 2 17 7 29 10v3l-23 5v3l11 4 19 5 30 7 12 4 10 9 9 9 4 10 3 7 3 10 6 18 6 25v6l-87 16-12 1-8-31-1-11-8-16-20-39-8-16-2-5-17 1-20 4-15 5-13 7-14 10-7 7-9 11-8 13-8 17-4 13-2 13v17l4 20 2 9-7 2-28 5h-8l-2-6-4-20-1-10v-17l2-18 6-23 5-13 6-10 5-9 10-14 9-10 11-11 13-10 19-11 19-8 15-4 11-2h7l-4-11-9-21-8-24z" fill="#F5952D"/>
<path transform="translate(1117,1242)" d="m0 0h2l1 2 6 51 10 89 3 25 1 13v27l-2 52-1 23-13 2-25 2-33 1-25-1-23-3-27-6-4-3 15-33 11-24 8-16 17-35 11-23 12-26 8-16 16-33 13-28 16-34z" fill="#D5D5FD"/>
<path transform="translate(1261,1776)" d="m0 0h77l-1 10-1 9v21l5 18 7 14 7 8 15 8 10 8 5 7v5h-40l-193-6-1-1-1-20v-20l-1-32v-28h52z" fill="#050306"/>
<path transform="translate(573,474)" d="m0 0 6 2 11 7 20 12 7 5v6l-6 10-10 15-12 19-13 20-12 19-15 23-13 20-14 22-10 15-11 17-9 14-7 11-9 12-4-1-8-8-4-5v-2l-3-1-8-10-9-10-8-10v-2l-3-1-6-8v-2h-2l-9-11-24-28-9-11v-2h-2l-8-10-10-12 1-4 9-7 16-13 10-9 5-1 7 7 7 8 24 28 11 13 9 11 10 12 3 1 2-6 13-20 11-17 24-38 14-22 15-23 8-12 6-8 7-11z" fill="#FC9CAB"/>
<path transform="translate(911,1020)" d="m0 0 11 6 16 9 1 2-12 40-20 70-10 34-12 41-8 28-6 20-7 25-3 10v8l3 4-1 9-7 8-7 2-9 1-2 5-10 15-5 7-6 11-17 28-7 12-9 16-5 9-7 12-8 16-12 21-8 16-10 21-7 14-5 12-6 12-15 35-13 32-8 20-8-1-11-4h-3l3-11 11-30 10-24 12-29 7-15 19-39 12-24 12-22 11-21 13-23 16-28 26-44 6-11 6-12 6-17 10-32 17-56 22-74 21-70 8-26z" fill="#7649F8"/>
<path transform="translate(1246,720)" d="m0 0h17l8 16 14 27 12 23 5 10 1 11 6 23v9l-74 13-75 14h-7l-2-1-5-20-1-7v-17l3-17 6-16 10-19 8-10 12-13 11-8 14-8 13-5 17-4z" fill="#FCFBFB"/>
<path transform="translate(1130,1213)" d="m0 0 2 3 7 36 9 51 6 35 8 45 2 14v11l-2 4v16l4 9v27l-5 115-7 149-4 2h-17v-36l4-131v-62l2-52v-27l-3-30-8-70-7-62-2-18-2-1 4-5z" fill="#7648F8"/>
<path transform="translate(1080,507)" d="m0 0h11l12 3 12 7 9 9 3 6v3l-2 1 2 7 9 26 1 7-2 10-6 9-5 5-11 10-1 3v7h18l-1 4-4 6-9 10-10 7-14 5-13 1-11-2-10-4-9-6-6-5-4-6v-3l10-3 4-3 2-11v-8l-9-3-7-7-2-4v-11l1-7-2-11 1-12 4-13 3-6-5-1-1-3h7 3l8-8 14-7z" fill="#BD5253"/>
<path transform="translate(1361,1725)" d="m0 0h1v36l-1 10-4 2-17 2-2 1-137 2h-49l-20-3-1-3 1-42 2 2h39l116-4 66-2z" fill="#7648F8"/>
<path transform="translate(657,1647)" d="m0 0 5 3 22 7 40 13 31 11 41 13 37 12 35 12 16 6-9 19-7 13-3 3-18-4-23-6-55-17-11-3-40-12-33-10-26-8h-3v-3l-9-3-3-3 5-19z" fill="#7648F8"/>
<path transform="translate(1267,890)" d="m0 0h10l9 2 9 5 6 5 6 10 3 9v12l-3 10-7 10-8 6 1 7 11 30 13 35v4l-45 8h-3l-1-62-1-17-10-3-9-6-7-8-4-8-1-4v-15l5-14 6-7 4-1v-2l7-4z" fill="#050306"/>
<path transform="translate(938,1037)" d="m0 0h3l1 4-17 58-45 155-13 44-2 6v6l3 6v8l-3 6-8 7-16 4-2 5-9 14-17 28-10 17-12 21-15 26-13 25-10 18-10 21-10 19-5 12-15 32-7 17-11 27-10 25v5l16 6 43 14 141 47-1 4-6-1-21-8-43-14-55-18-33-11-38-13-17-5-12-4-1-4 3-1 14 5 5 1 3-11 8-19 10-24 12-28 7-16 5-10 7-16 9-17 15-30 9-16 11-21 8-14 6-10 6-11 24-40 10-16 7-10 3-5 9-2 7-2 6-7 1-9-3-4v-8l7-25 4-13 5-17 9-31 7-25 7-23 11-38 6-22 9-29 7-25z" fill="#050306"/>
<path transform="translate(1080,507)" d="m0 0h11l12 3 12 7 9 9 3 6v3l-14 6-13 3-4 2 1 7-5 1-6 1-3 4-4-1 1-6-13-2-3-1 1 14-2 1-12 1-12 6-2-5-1-12 3-15 5-11-5-1-1-3h7 3l8-8 14-7z" fill="#050306"/>
<path transform="translate(1223,620)" d="m0 0h8l30 7 21 7 20 9 20 10 8 5 1 2 3 1 16 2v1h-67l-1 5-7 1v9l-29-2-3-5-9-20-7-18-4-12z" fill="#FCF9F9"/>
<path transform="translate(1264,720)" d="m0 0 4 1 15 28 10 20 12 22 1 4 4-1 22-13 14-8h4l8 20 5 17 1 8v11l-31 6-18 3h-5l-8-31-1-11-8-16-20-39-8-16z" fill="#BD5253"/>
<path transform="translate(1143,1170)" d="m0 0h1l-1 8-8 23v7l5 26 9 53 6 32 6 37 7 39 1 12-4 10v7l3 8 2 4v21l-6 130-3 63-3 65v13h34l148-5h21v3l-6 1-182 6h-39l-1-3 17-1 3-1 8-170 4-94v-27l-4-9v-16l2-4v-11l-6-37-7-40-9-52-9-47-2-6-6 16-4 8-4 3 2-10 5-12 7-20 9-24z" fill="#050306"/>
<path transform="translate(1269,722)" d="m0 0 14 2 18 6 13 7 13 10 14 14 7 9v3l-25 14-14 9-3-1-13-25-10-19-14-27z" fill="#FBF9F8"/>
<path transform="translate(526,137)" d="m0 0h655l1 4-2 1h-648l-7-2z" fill="#050306"/>
<path transform="translate(526,158)" d="m0 0h656v4h-634l-22-1z" fill="#050306"/>
<path transform="translate(1286,476)" d="m0 0h316l2 1v2l-2 1-112 1h-177l-27-1z" fill="#050306"/>
<path transform="translate(799,427)" d="m0 0 9 1 5 5 8 10 5 3 6-1 8-9 6-7 4-2h6l8 6 8 10 5 3 5-1 5-4 7-10 7-4 8 1 8 8 6 8 4 2 5-1 7-6 6-8 6-4h6l6 4 6 7 5 6 4 2 5-1 5-4 7-10 7-4h6l6 4 7 9 4 5 6 1 8-4 3-5h2v5l-4 5-5 3-6 1-8-3-6-7-5-7-4-2-6 1-7 9-6 7-5 2-8-1-6-4-7-10-4-3h-7l-6 7-5 7-8 4-7-1-6-4-10-12-6-2-4 3h-2l-2 4-6 8-8 4-7-1-6-4-7-9-4-4-5-1-6 5-6 8-4 4-5 2-8-1-5-3-8-11-5-4-5 1-9 8-3-1 2-5 8-7z" fill="#050306"/>
<path transform="translate(1287,496)" d="m0 0h315l1 3-2 1-226 1h-54l-35-1z" fill="#070407"/>
<path transform="translate(1286,517)" d="m0 0h317l-1 3-7 1h-308z" fill="#050306"/>
<path transform="translate(1527,976)" d="m0 0 9 2 5 5 6 10 2 1h9l5-4 3-6 4-5 7-3 7 1 6 5 7 10 5 3 7-1 5-5 5-8 5-4 7-1 7 3 5 5 2 5 5 4 2 1h7l6-7 6-8 4-3h10l5 3 6 9 4 5 2 1h7l5-5 7-10 4-3h10l8 5 6 11 3 2h7l7-6 3-3h2l-1 5-6 7-4 2h-8l-6-4-7-9-5-5h-7l-7 8-5 7-5 3h-8l-7-4-8-11-4-3h-6l-6 5-8 11-4 2h-8l-6-3-6-10v-2l-6-3h-8l-5 5-6 9-6 3h-8l-7-4-6-9-4-4h-8l-6 5-5 8-4 3-3 1h-8l-6-4-7-10-4-3h-7l-5 3-4 4-2-2 4-6 5-3z" fill="#09050E"/>
<path transform="translate(323,1067)" d="m0 0 9 3 7 10 3 4 5 2 5-1 5-5 6-9 4-3h12l7 6 5 9 9 3 5-3h2l2-5 6-8 7-3h7l7 6 6 9 5 3h10l2-6 6-8 5-3h9l6 4 6 9 4 4 7 1 6-4 7-11 5-3h10l6 4 7 11 5 3 6-1 5-3 3-5h2l-1 6-6 5-2 1h-10l-5-3-7-10-5-4-9 1-4 5-5 8-6 3h-8l-7-4-7-10-5-3-9 1-6 8-5 8-6 1-7-1-8-7-7-9-2-1h-7l-5 5-7 10-5 3h-9l-8-7-7-9-5-2-6 1-8 11-7 6h-10l-6-4-8-12-4-2-7 1-5 4-2 3h-3l1-5 8-7z" fill="#0B0714"/>
<path transform="translate(1527,583)" d="m0 0 4 2 17 29 5 11-1 1h-48l-1-2 10-18z" fill="#CFCEFC"/>
<path transform="translate(441,325)" d="m0 0h6l-1 4-18 8-33 13-66 26-28 11-21 8h-5l-1-3 3-3 23-9 31-12 20-8 26-10 43-17z" fill="#F3F3FD"/>
<path transform="translate(1678,470)" d="m0 0 6 1 4 3-1 5-12 19-9 14-8 12-4-2-9-11-10-11-3-4 1-4 5-5 5 1 11 13 3 3 2-5 14-22z" fill="#7A52F8"/>
<path transform="translate(1152,345)" d="m0 0h161l147 1v3h-316l-1-3z" fill="#050306"/>
<path transform="translate(1143,304)" d="m0 0h316l1 3-26 1h-290z" fill="#050306"/>
<path transform="translate(1104,299)" d="m0 0 9 1 2 4-5 10-17 26-7 11-2 1-5-5-11-12-8-11 1-5 5-3 4 2 11 13 4-1 11-18z" fill="#FAFAFD"/>
<path transform="translate(1144,325)" d="m0 0h316v3h-316z" fill="#050306"/>
<path transform="translate(1056,968)" d="m0 0 37 2 4 10 7 21 2 4-1 5-5 1-6-4-8-8-9-7-10-10-8-10z" fill="#774BF7"/>
<path transform="translate(980,648)" d="m0 0h11l13 4 8 6 5 5 6 8 5 13 2 9v25l-4 24-7 30-8 29-3 5-3-1 2-9 10-37 6-30 2-16v-16l-3-15-7-14-3-3v-2l-4-2-10-6-8-2h-8l-10 3h-4l1-4 7-3z" fill="#050306"/>
<path transform="translate(345,941)" d="m0 0 5 2 17 10 5 2 11 7v2l-16 8-20 11h-2l-1-6z" fill="#050308"/>
<path transform="translate(1616,1249)" d="m0 0 31 1-9 19-10 17h-2l-10-17-10-18v-1z" fill="#774AF8"/>
<path transform="translate(683,685)" d="m0 0h3v14l-4 22-6 20-10 21-11 16-11 13-9 9-17 13-16 9h-5l2-4 18-10 14-11 8-7 7-8 12-16 10-19 7-19 4-17 3-25z" fill="#050306"/>
<path transform="translate(477,301)" d="m0 0 4 1v164h-5z" fill="#050306"/>
<path transform="translate(1442,925)" d="m0 0 2 1v13l-4 23-6 20-8 19-10 18-9 12-12 14-10 10-11 9-8 5h-3l1-4 14-10 14-13 7-8 9-12 9-14 8-16 7-19 4-15 5-32z" fill="#050306"/>
<path transform="translate(1144,617)" d="m0 0h3l-1 5-7 14-12 13-14 9-12 5-5 1h-24l-14-4-14-8-10-9-7-9-1-6 4 1 6 9 7 7 10 7 12 5 7 2h23l13-4 12-7 10-9 9-13 4-8z" fill="#060306"/>
<path transform="translate(1347,516)" d="m0 0h257v6l-1 1h-45l-267-1v-1l304-1 7-1 1-2h-256z" fill="#8F7EFA"/>
<path transform="translate(1209,691)" d="m0 0h5v4l-22 8-15 8-10 7-9 8h-2l-2 4-9 10-10 14-7 16-3 6-3 1v-7l7-16 12-18 12-13 10-9 13-9 21-10z" fill="#FDCF98"/>
<path transform="translate(1283,665)" d="m0 0h9l23 3 59 7 19 2 3 3-3 2-23-2-47-5-40-5-1-3z" fill="#050306"/>
<path transform="translate(477,763)" d="m0 0h4v141l-1 3h-3z" fill="#050306"/>
<path transform="translate(1527,583)" d="m0 0 4 2 17 29 5 11-1 1h-48l-1-2 10-18zm0 7-6 10-10 17-3 5 3 1h35l1-3-9-16-9-14z" fill="#050306"/>
<path transform="translate(1152,1878)" d="m0 0h31l102 3 100 3 1-4 1 4-1 1h-58l-83-2-63-2-29-1z" fill="#7648F8"/>
<path transform="translate(386,138)" d="m0 0h7l4 2 3 6v9l-4 5-3 1h-8l-6-5-1-2v-9l5-6z" fill="#7648F8"/>
<path transform="translate(435,138)" d="m0 0h7l6 4 2 4v8l-3 5-4 2h-8l-6-5-1-2v-9l5-6z" fill="#7648F8"/>
<path transform="translate(485,138)" d="m0 0 9 1 4 4 2 4-1 9-5 4-2 1h-7l-6-5-2-6 1-6z" fill="#7648F8"/>
<path transform="translate(1264,720)" d="m0 0 4 1 15 28 10 20 12 22 1 6h-4l-10-19-19-37-8-16z" fill="#070407"/>
<path transform="translate(1388,746)" d="m0 0 5 3 12 12 15 8 11 3 6 1h16v4l-6 2-21-2-13-5-11-6-10-8-5-10z" fill="#050306"/>
<path transform="translate(1260,1109)" d="m0 0h14l-1 2-20 7-32 10-12 4h-7l1-4 46-15z" fill="#050306"/>
<path transform="translate(722,1868)" d="m0 0 5 2 12 7 84 1h82l-2 2-41 1h-52l-70-1-8-4-10-7z" fill="#7648F8"/>
<path transform="translate(1525,980)" d="m0 0h7l7 6 5 8 5 3h8l6-3 7-10 5-4h8l7 7 4 7 6 3h8l6-3 7-11 4-3h8l6 4 5 9-1 2-7-8-2-1v-2l-8-1-5 4-4 8-5 4-3 1h-10l-7-4-6-10-4-3h-6l-4 2-1 2h-2l-2 6-4 5-4 2h-10l-7-4-7-11-4-2h-6l-6 3 1-3z" fill="#8B75F9"/>
<path transform="translate(1126,1295)" d="m0 0h1l8 70 5 43 1 12v40l-1 43-1 20-2 2v-24l2-52v-27l-3-30-8-70-2-18z" fill="#9891FB"/>
<path transform="translate(767,1802)" d="m0 0 51 1 13 1v4h-46l-19-1-1-4z" fill="#8C77F9"/>
<path transform="translate(471,1071)" d="m0 0 9 1 6 7 4 6 6 3h8l6-3 6-10 3-3 9-1 8 7 4 6v2l5 2h10l6-4 3-7h1l-1 7-7 6-2 1h-10l-8-5-5-8-5-4h-6l-5 5-5 8-4 3-3 1h-9l-7-4-4-5-3-5-4-3h-6l-5 5-3 9-4-1 2-6 6-8z" fill="#8C77F9"/>
<path transform="translate(441,325)" d="m0 0h6l-1 4-18 8-33 13-5 2h-5l-1-3 45-18 7-2v-2z" fill="#F5F5FD"/>
<path transform="translate(1269,1826)" d="m0 0 49 1 6 1-1 4h-54l-1-5z" fill="#8567F8"/>
<path transform="translate(433,328)" d="m0 0 3 1-9 4-40 16h-3l1 2 3 2-18 7-7-1-18 6-13 5-3-1 12-5 36-14 43-17z" fill="#D7D7FD"/>
<path transform="translate(1257,882)" d="m0 0 4 1v3l-11 5h-2v2l-8 7-6 10-2 8-1 11h-3l-1-1v-12l3-10 6-10 10-9z" fill="#050306"/>
<path transform="translate(760,1786)" d="m0 0h19l35 1 7 1 1 3h-62l-1-3z" fill="#9F87EA"/>
<path transform="translate(1220,619)" d="m0 0 3 1 14 37 8 18-1 2-4-1-13-30-8-24z" fill="#050306"/>
<path transform="translate(1266,1795)" d="m0 0h47l2 3-1 1-20 1h-34v-4z" fill="#C3B3FB"/>
<path transform="translate(1263,1811)" d="m0 0h57l1 4-56 1-3-3z" fill="#968DFA"/>
<path transform="translate(1256,887)" d="m0 0h6l5 2v2l-11 3-5 2v2l-4 1-2 4-8 8-1-1v9l-3 6h-1v-11l4-10 9-10 3-1v-2z" fill="#F8E6DB"/>
<path transform="translate(794,1770)" d="m0 0h19l2 1v3l-3 1h-49v-4z" fill="#7648F8"/>
<path transform="translate(726,814)" d="m0 0h6l5 4v8l-4 4-7 1-5-5-1-6 4-5z" fill="#050306"/>
<path transform="translate(435,1061)" d="m0 0 5 5 7 9 6 7 5-5 4-6 3-3 9-2 6 1 6 4 4 5 4 6 4 2h8l-4 3-7-1-5-5-6-9-5-3h-9l-6 4-7 12-8 1-6-11-8-11z" fill="#8A74F9"/>
<path transform="translate(208,751)" d="m0 0h6l4 3 1 8-4 5h-7l-5-5v-6z" fill="#0A060F"/>
<path transform="translate(1322,695)" d="m0 0 48 1v4h-49l-1-4z" fill="#050306"/>
<path transform="translate(1209,691)" d="m0 0h5v4l-22 8-8 4-9 1 1-3 21-10z" fill="#FDE9D1"/>
<path transform="translate(1503,1290)" d="m0 0h7l4 4 1 4-2 5-3 3h-7l-5-5v-6zm3 4-2 2v6l5-1 1-6z" fill="#140E24"/>
<path transform="translate(1148,730)" d="m0 0v3l-6 7-8 13-3 9-5 13-4 2v-7l7-16 12-18z" fill="#FDE5C9"/>
<path transform="translate(1452,966)" d="m0 0h1l-1 9-5 16-7 16-8 16-12 17-6 8h-2l-2 4h-3l11-13 10-15 9-16 10-24z" fill="#FDFDFD"/>
<path transform="translate(1082,604)" d="m0 0 11 1h12l5-1h8l-5 6-17 1-11-2-3-2z" fill="#050306"/>
<path transform="translate(1625,975)" d="m0 0h8l7 3 4 3-1 4-6-6-6-2-7 1-6 5-5 9-7 4-6-1-6-5-6-9-4-4 5 1 4 5 5 7 4 2 8-1 5-7 3-5 3-3z" fill="#8B77F9"/>
<path transform="translate(1518,794)" d="m0 0 2 3 2 10 1 18v12l-5 17-6 14-4 6-1-2 8-17 5-18v-23l-2-15z" fill="#FCA4A7"/>
<path transform="translate(310,376)" d="m0 0 3 1-22 9v2l2 2-13 5h-5l-1-3 3-3 23-9z" fill="#D5D5FD"/>
<path transform="translate(1525,980)" d="m0 0h7l7 6 5 8 5 3h8l6-3 5-8 3-1v2h-2l-2 6-4 5-4 2h-10l-7-4-7-11-4-2h-6l-6 3 1-3z" fill="#8F7EFA"/>
<path transform="translate(1269,1826)" d="m0 0 41 2v2l-27 1h-15z" fill="#B7AFF7"/>
<path transform="translate(1264,1812)" d="m0 0h50l5 1v1l-47 1-7 1-2-1z" fill="#F8EEEA"/>
<path transform="translate(1107,557)" d="m0 0 5 2 4 9v6l-2 1h-6v-7l-2-10z" fill="#050306"/>
<path transform="translate(1443,1081)" d="m0 0 4 1 4 4-1 5-4 3-5-2-2-3 1-5z" fill="#050306"/>
<path transform="translate(795,1019)" d="m0 0 5 1 3 3v5l-4 3h-6l-2-6 3-5z" fill="#7D58F8"/>
<path transform="translate(739,1066)" d="m0 0 5 2 2 4-2 5-2 1h-6l-2-3v-6z" fill="#050306"/>
<path transform="translate(522,1071)" d="m0 0h6l8 7 4 6v2l5 2h10l6-4 3-7h1l-1 7-7 6-2 1h-10l-8-5-5-8-5-4-6-1z" fill="#8F7FFA"/>
<path transform="translate(1679,601)" d="m0 0h9l1 1v6l-3 4-6-1-3-6z" fill="#7950F8"/>
<path transform="translate(613,1263)" d="m0 0 6 1 2 2v5l-3 3h-6l-3-4 2-6z" fill="#784DF8"/>
<path transform="translate(963,879)" d="m0 0h6l2 4-16 4h-6v-3l6-3z" fill="#060306"/>
<path transform="translate(435,1061)" d="m0 0 5 5 7 9 6 7 6-4-1 5-1 2-8 1-6-11-8-11z" fill="#9588FA"/>
<path transform="translate(1582,714)" d="m0 0h5l4 4-2 5-2 2-7-1-1-7z" fill="#050306"/>
<path transform="translate(1435,1399)" d="m0 0h7l2 2v5l-3 3-4 1-4-2-1-5z" fill="#774BF8"/>
<path transform="translate(563,1223)" d="m0 0 6 1 2 3-1 6-1 1h-6l-3-3 1-6z" fill="#784CF8"/>
<path transform="translate(1151,1067)" d="m0 0h8v4l-9 2-10 1-2-1 1-3z" fill="#050306"/>
<path transform="translate(1504,877)" d="m0 0 1 2-8 11-10 10-10 7-13 7-3-1 18-10 6-5h2v-2l8-7z" fill="#FCACA2"/>
<path transform="translate(1575,980)" d="m0 0h8l7 7 4 7 6 3v2h7v1h-8l-7-4-6-10-4-3h-6l-6 2z" fill="#9183FA"/>
<path transform="translate(1240,901)" d="m0 0h3v3l-4 6h-3v9l-3 6h-1v-11l4-10z" fill="#F8E2D2"/>
<path transform="translate(762,1772)" d="m0 0h22l9 1v1l-11 1h-19z" fill="#9F92F2"/>
<path transform="translate(1148,730)" d="m0 0v3l-6 7-8 13-5 3 2-5 10-15z" fill="#FDECD8"/>
<path transform="translate(1087,563)" d="m0 0 6 1 1 7-1 1h-6l-2-2 1-6z" fill="#050306"/>
<path transform="translate(1124,552)" d="m0 0 3 2-2 7-4 1-3-3-1-5z" fill="#050306"/>
<path transform="translate(1625,975)" d="m0 0h8l7 3 4 3-1 4-6-6-6-2-7 1-8 6 1-4 4-4z" fill="#8E7DFA"/>
<path transform="translate(1050,575)" d="m0 0h11l1 4-1 1h-11l-2-1v-3z" fill="#050306"/>
<path transform="translate(1627,980)" d="m0 0h6l6 4 5 9-1 2-7-8-2-1v-2l-8-2z" fill="#8F7FFA"/>
<path transform="translate(1521,838)" d="m0 0 1 4-9 24-5 8-1-2 8-17 4-14z" fill="#FCABA3"/>
<path transform="translate(1544,616)" d="m0 0 3 4-1 3h-35l-3-2 2-1 2 1h32z" fill="#8161F9"/>
<path transform="translate(1122,539)" d="m0 0 1 3 2 1-7 5h-5l-1-4 5-3z" fill="#050306"/>
<path transform="translate(519,1072)" d="m0 0h2v2l-5 5-5 8-4 3-3 1h-9l-1-2 13-2 4-4 6-9z" fill="#8D79FA"/>
<path transform="translate(1101,578)" d="m0 0 12 1 1 2-2 3h-8l-3-3z" fill="#050306"/>
<path transform="translate(1525,980)" d="m0 0h7l7 6 5 8 1 2h-3l-7-11-4-2h-6l-6 3 1-3z" fill="#8B75F9"/>
<path transform="translate(727,818)" d="m0 0 5 1 1 5-3 3-4-2-1-5z" fill="#C8BFFB"/>
<path transform="translate(1060,597)" d="m0 0h6l-2 5-6 3-3-3 1-3z" fill="#050306"/>
<path transform="translate(1462,914)" d="m0 0 2 1-3 5-1 3-1 18-1 6h-1l1-30z" fill="#FDFDFD"/>
<path transform="translate(478,1072)" d="m0 0 4 2 4 5 4 6 6 3-4 2-5-4-6-9z" fill="#8B75F9"/>
<path transform="translate(441,325)" d="m0 0h6l-1 4-8 4-3-1 2-1 1-3-2-1z" fill="#D5D5FD"/>
<path transform="translate(1248,891)" d="m0 0 2 1-2 1zm-2 2 3 1-1 3h-3v2l2 2-3 2-4-1-2 1 2-4z" fill="#F6CBA4"/>
<path transform="translate(573,474)" d="m0 0 6 2v3l-6 2-5 6-2-1 6-10z" fill="#FBDDBD"/>
<path transform="translate(487,1073)" d="m0 0 3 3 4 6 4 2h8l-4 3-7-1-5-5-3-5z" fill="#8C79FA"/>
<path transform="translate(207,754)" d="m0 0 5 4 2-2 2 3-1 4h-6l-2-2z" fill="#AF9DF8"/>
<path transform="translate(1303,1796)" d="m0 0h11v3h-13l-3-2z" fill="#DCD9FC"/>
<path transform="translate(1405,1053)" d="m0 0h2l-2 4-10 8-7 6-2-1 11-10z" fill="#FDFDFD"/>
<path transform="translate(366,947)" d="m0 0 5 5 11 8-2 1-12-7-2-4z" fill="#8F7DFA"/>
<path transform="translate(614,499)" d="m0 0 3 1v6l-3 5h-2l1-11z" fill="#FDD2A0"/>
<path transform="translate(1379,738)" d="m0 0 7 6 1 1v6l-1-2-3-1-4-8z" fill="#FECD92"/>
<path transform="translate(541,1080)" d="m0 0 5 3 10 1-2 2-6 1-5-3z" fill="#8D79FA"/>
<path transform="translate(1545,990)" d="m0 0 5 2h11l-3 3h-9l-4-3z" fill="#8E7BFA"/>
<path transform="translate(1602,516)" d="m0 0h2v6l-1 1h-8v-3l7-1z" fill="#8D7AFA"/>
<path transform="translate(1234,913)" d="m0 0 2 2-1 7-3 3v-11z" fill="#FAF4F0"/>
<path transform="translate(1570,985)" d="m0 0 1 2h-2l-2 6-4 5-3-1 6-7 2-4z" fill="#8C78FA"/>
<path transform="translate(1122,536)" d="m0 0h2l1 6h-2l-1-2-4 1v-3z" fill="#D26F6D"/>
<path transform="translate(1236,909)" d="m0 0h3l1 2-3 9h-1l-1-10z" fill="#EEAE7F"/>
<path transform="translate(1256,887)" d="m0 0 3 1v3l-6 2-1-4z" fill="#F6C89F"/>
<path transform="translate(1139,745)" d="m0 0v3l-7 12-1-3 5-9z" fill="#FECD92"/>
</svg>
